# xmcd
#
# Track frame offsets: 
#        150
#        11567
#        23117
#        33478
#        52700
#        64722
#        77024
#        95437
#        112443
#        123764
#        137122
#
# Disc length: 1968 seconds
#
# Revision: 0
# Processed by: cddbd v1.5.2PL0 Copyright (c) Steve Scherf et al.
# Submitted via: ExactAudioCopyFreeDBPlugin 1.0
#
DISCID=8907ae0b
DTITLE=Beth Harris - There Nothing like A Cowboy
DYEAR=2002
DGENRE=Country
TTITLE0=Get Right Back to You
TTITLE1=If They Only Had A Brain
TTITLE2=Chevy
TTITLE3=Colorblind
TTITLE4=Nothing Like A Cowboy
TTITLE5=Nothing But A Heartache
TTITLE6=Heaven Was A Place
TTITLE7=I Can't Call It Home
TTITLE8=Hairy legged Man
TTITLE9=Wham Bam
TTITLE10=Can't Beat That
EXTD=
EXTT0=
EXTT1=
EXTT2=
EXTT3=
EXTT4=
EXTT5=
EXTT6=
EXTT7=
EXTT8=
EXTT9=
EXTT10=
PLAYORDER=
